<?xml version="1.0" encoding="UTF-8" standalone="no"?>
<!DOCTYPE svg PUBLIC "-//W3C//DTD SVG 1.1//EN"
 "http://www.w3.org/Graphics/SVG/1.1/DTD/svg11.dtd">
<!-- Generated by graphviz version 2.38.0 (20140413.2041)
 -->
<!-- Title: snakemake_dag Pages: 1 -->
<svg width="782pt" height="332pt"
 viewBox="0.00 0.00 782.00 332.00" xmlns="http://www.w3.org/2000/svg" xmlns:xlink="http://www.w3.org/1999/xlink">
<g id="graph0" class="graph" transform="scale(1 1) rotate(0) translate(4 328)">
<title>snakemake_dag</title>
<polygon fill="white" stroke="none" points="-4,4 -4,-328 778,-328 778,4 -4,4"/>
<!-- 0 -->
<g id="node1" class="node"><title>0</title>
<path fill="none" stroke="#56c1d8" stroke-width="2" stroke-dasharray="5,2" d="M549,-36C549,-36 519,-36 519,-36 513,-36 507,-30 507,-24 507,-24 507,-12 507,-12 507,-6 513,-0 519,-0 519,-0 549,-0 549,-0 555,-0 561,-6 561,-12 561,-12 561,-24 561,-24 561,-30 555,-36 549,-36"/>
<text text-anchor="middle" x="534" y="-15.5" font-family="sans" font-size="10.00">all</text>
</g>
<!-- 1 -->
<g id="node2" class="node"><title>1</title>
<path fill="none" stroke="#56d88a" stroke-width="2" stroke-dasharray="5,2" d="M367,-108C367,-108 315,-108 315,-108 309,-108 303,-102 303,-96 303,-96 303,-84 303,-84 303,-78 309,-72 315,-72 315,-72 367,-72 367,-72 373,-72 379,-78 379,-84 379,-84 379,-96 379,-96 379,-102 373,-108 367,-108"/>
<text text-anchor="middle" x="341" y="-87.5" font-family="sans" font-size="10.00">sleuth_plots</text>
</g>
<!-- 1&#45;&gt;0 -->
<g id="edge1" class="edge"><title>1&#45;&gt;0</title>
<path fill="none" stroke="grey" stroke-width="2" d="M379.131,-75.1703C413.426,-62.7316 463.476,-44.5788 497.318,-32.3044"/>
<polygon fill="grey" stroke="grey" stroke-width="2" points="498.628,-35.5524 506.835,-28.8525 496.241,-28.9719 498.628,-35.5524"/>
</g>
<!-- 2 -->
<g id="node3" class="node"><title>2</title>
<path fill="none" stroke="#68d856" stroke-width="2" stroke-dasharray="5,2" d="M458.5,-108C458.5,-108 409.5,-108 409.5,-108 403.5,-108 397.5,-102 397.5,-96 397.5,-96 397.5,-84 397.5,-84 397.5,-78 403.5,-72 409.5,-72 409.5,-72 458.5,-72 458.5,-72 464.5,-72 470.5,-78 470.5,-84 470.5,-84 470.5,-96 470.5,-96 470.5,-102 464.5,-108 458.5,-108"/>
<text text-anchor="middle" x="434" y="-87.5" font-family="sans" font-size="10.00">pvalue_hist</text>
</g>
<!-- 2&#45;&gt;0 -->
<g id="edge2" class="edge"><title>2&#45;&gt;0</title>
<path fill="none" stroke="grey" stroke-width="2" d="M458.463,-71.8761C471.296,-62.8931 487.196,-51.7625 501.094,-42.0341"/>
<polygon fill="grey" stroke="grey" stroke-width="2" points="503.258,-44.7917 509.443,-36.1898 499.244,-39.0571 503.258,-44.7917"/>
</g>
<!-- 3 -->
<g id="node4" class="node"><title>3</title>
<path fill="none" stroke="#567bd8" stroke-width="2" stroke-dasharray="5,2" d="M567.5,-108C567.5,-108 500.5,-108 500.5,-108 494.5,-108 488.5,-102 488.5,-96 488.5,-96 488.5,-84 488.5,-84 488.5,-78 494.5,-72 500.5,-72 500.5,-72 567.5,-72 567.5,-72 573.5,-72 579.5,-78 579.5,-84 579.5,-84 579.5,-96 579.5,-96 579.5,-102 573.5,-108 567.5,-108"/>
<text text-anchor="middle" x="534" y="-87.5" font-family="sans" font-size="10.00">boxplot_counts</text>
</g>
<!-- 3&#45;&gt;0 -->
<g id="edge3" class="edge"><title>3&#45;&gt;0</title>
<path fill="none" stroke="grey" stroke-width="2" d="M534,-71.6966C534,-63.9827 534,-54.7125 534,-46.1124"/>
<polygon fill="grey" stroke="grey" stroke-width="2" points="537.5,-46.1043 534,-36.1043 530.5,-46.1044 537.5,-46.1043"/>
</g>
<!-- 4 -->
<g id="node5" class="node"><title>4</title>
<path fill="none" stroke="#ced856" stroke-width="2" stroke-dasharray="5,2" d="M272.5,-108C272.5,-108 217.5,-108 217.5,-108 211.5,-108 205.5,-102 205.5,-96 205.5,-96 205.5,-84 205.5,-84 205.5,-78 211.5,-72 217.5,-72 217.5,-72 272.5,-72 272.5,-72 278.5,-72 284.5,-78 284.5,-84 284.5,-84 284.5,-96 284.5,-96 284.5,-102 278.5,-108 272.5,-108"/>
<text text-anchor="middle" x="245" y="-87.5" font-family="sans" font-size="10.00">volcano_plot</text>
</g>
<!-- 4&#45;&gt;0 -->
<g id="edge4" class="edge"><title>4&#45;&gt;0</title>
<path fill="none" stroke="grey" stroke-width="2" d="M284.723,-74.7841C287.848,-73.7987 290.967,-72.8577 294,-72 364.81,-51.9716 449.133,-34.8755 496.627,-25.8502"/>
<polygon fill="grey" stroke="grey" stroke-width="2" points="497.57,-29.2342 506.75,-23.9432 496.274,-22.3552 497.57,-29.2342"/>
</g>
<!-- 5 -->
<g id="node6" class="node"><title>5</title>
<path fill="none" stroke="#569ad8" stroke-width="2" stroke-dasharray="5,2" d="M584.5,-180C584.5,-180 513.5,-180 513.5,-180 507.5,-180 501.5,-174 501.5,-168 501.5,-168 501.5,-156 501.5,-156 501.5,-150 507.5,-144 513.5,-144 513.5,-144 584.5,-144 584.5,-144 590.5,-144 596.5,-150 596.5,-156 596.5,-156 596.5,-168 596.5,-168 596.5,-174 590.5,-180 584.5,-180"/>
<text text-anchor="middle" x="549" y="-159.5" font-family="sans" font-size="10.00">sleuth_heatmap</text>
</g>
<!-- 5&#45;&gt;0 -->
<g id="edge5" class="edge"><title>5&#45;&gt;0</title>
<path fill="none" stroke="grey" stroke-width="2" d="M565.89,-143.993C574.293,-134.315 583.582,-121.459 588,-108 592.99,-92.7982 594.192,-86.7533 588,-72 583.36,-60.9454 575.166,-51.0368 566.54,-42.862"/>
<polygon fill="grey" stroke="grey" stroke-width="2" points="568.74,-40.1355 558.928,-36.1392 564.107,-45.3823 568.74,-40.1355"/>
</g>
<!-- 6 -->
<g id="node7" class="node"><title>6</title>
<path fill="none" stroke="#d87556" stroke-width="2" stroke-dasharray="5,2" d="M661,-180C661,-180 627,-180 627,-180 621,-180 615,-174 615,-168 615,-168 615,-156 615,-156 615,-150 621,-144 627,-144 627,-144 661,-144 661,-144 667,-144 673,-150 673,-156 673,-156 673,-168 673,-168 673,-174 667,-180 661,-180"/>
<text text-anchor="middle" x="644" y="-159.5" font-family="sans" font-size="10.00">pca_plot</text>
</g>
<!-- 6&#45;&gt;0 -->
<g id="edge6" class="edge"><title>6&#45;&gt;0</title>
<path fill="none" stroke="grey" stroke-width="2" d="M639.387,-143.865C633.645,-124.84 622.418,-93.9278 605,-72 595.205,-59.6694 581.89,-48.725 569.436,-40.0301"/>
<polygon fill="grey" stroke="grey" stroke-width="2" points="571.262,-37.0401 561.006,-34.3805 567.365,-42.8551 571.262,-37.0401"/>
</g>
<!-- 7 -->
<g id="node8" class="node"><title>7</title>
<path fill="none" stroke="#afd856" stroke-width="2" stroke-dasharray="5,2" d="M742.5,-180C742.5,-180 703.5,-180 703.5,-180 697.5,-180 691.5,-174 691.5,-168 691.5,-168 691.5,-156 691.5,-156 691.5,-150 697.5,-144 703.5,-144 703.5,-144 742.5,-144 742.5,-144 748.5,-144 754.5,-150 754.5,-156 754.5,-156 754.5,-168 754.5,-168 754.5,-174 748.5,-180 742.5,-180"/>
<text text-anchor="middle" x="723" y="-159.5" font-family="sans" font-size="10.00">stripchart</text>
</g>
<!-- 7&#45;&gt;0 -->
<g id="edge7" class="edge"><title>7&#45;&gt;0</title>
<path fill="none" stroke="grey" stroke-width="2" d="M707.464,-143.923C689.666,-124.95 659.068,-94.0838 629,-72 610.723,-58.5764 588.693,-46.0857 570.45,-36.6057"/>
<polygon fill="grey" stroke="grey" stroke-width="2" points="571.793,-33.362 561.295,-31.9337 568.611,-39.5969 571.793,-33.362"/>
</g>
<!-- 8 -->
<g id="node9" class="node"><title>8</title>
<path fill="none" stroke="#88d856" stroke-width="2" stroke-dasharray="5,2" d="M492,-252C492,-252 454,-252 454,-252 448,-252 442,-246 442,-240 442,-240 442,-228 442,-228 442,-222 448,-216 454,-216 454,-216 492,-216 492,-216 498,-216 504,-222 504,-228 504,-228 504,-240 504,-240 504,-246 498,-252 492,-252"/>
<text text-anchor="middle" x="473" y="-231.5" font-family="sans" font-size="10.00">sleuth_lrt</text>
</g>
<!-- 8&#45;&gt;1 -->
<g id="edge8" class="edge"><title>8&#45;&gt;1</title>
<path fill="none" stroke="grey" stroke-width="2" d="M457.078,-215.871C433.887,-190.924 390.685,-144.45 364.028,-115.773"/>
<polygon fill="grey" stroke="grey" stroke-width="2" points="366.351,-113.131 356.979,-108.189 361.224,-117.897 366.351,-113.131"/>
</g>
<!-- 8&#45;&gt;2 -->
<g id="edge10" class="edge"><title>8&#45;&gt;2</title>
<path fill="none" stroke="grey" stroke-width="2" d="M468.296,-215.871C461.62,-191.564 449.33,-146.819 441.419,-118.013"/>
<polygon fill="grey" stroke="grey" stroke-width="2" points="444.744,-116.905 438.721,-108.189 437.994,-118.759 444.744,-116.905"/>
</g>
<!-- 8&#45;&gt;3 -->
<g id="edge11" class="edge"><title>8&#45;&gt;3</title>
<path fill="none" stroke="grey" stroke-width="2" d="M474.32,-215.861C476.266,-197.374 480.958,-167.441 492,-144 496.653,-134.123 503.468,-124.427 510.26,-116.085"/>
<polygon fill="grey" stroke="grey" stroke-width="2" points="513.13,-118.114 516.964,-108.237 507.808,-113.567 513.13,-118.114"/>
</g>
<!-- 8&#45;&gt;5 -->
<g id="edge13" class="edge"><title>8&#45;&gt;5</title>
<path fill="none" stroke="grey" stroke-width="2" d="M491.787,-215.697C501.174,-207.05 512.684,-196.449 522.913,-187.027"/>
<polygon fill="grey" stroke="grey" stroke-width="2" points="525.445,-189.454 530.43,-180.104 520.703,-184.305 525.445,-189.454"/>
</g>
<!-- 8&#45;&gt;6 -->
<g id="edge14" class="edge"><title>8&#45;&gt;6</title>
<path fill="none" stroke="grey" stroke-width="2" d="M504.043,-220.833C530.859,-210.251 570.603,-194.399 605,-180 605.098,-179.959 605.196,-179.918 605.294,-179.877"/>
<polygon fill="grey" stroke="grey" stroke-width="2" points="606.816,-183.033 614.652,-175.902 604.08,-176.59 606.816,-183.033"/>
</g>
<!-- 8&#45;&gt;7 -->
<g id="edge15" class="edge"><title>8&#45;&gt;7</title>
<path fill="none" stroke="grey" stroke-width="2" d="M504.212,-226.566C543.57,-218.133 613.376,-202.115 681.752,-179.825"/>
<polygon fill="grey" stroke="grey" stroke-width="2" points="682.992,-183.102 691.387,-176.639 680.794,-176.456 682.992,-183.102"/>
</g>
<!-- 9 -->
<g id="node10" class="node"><title>9</title>
<path fill="none" stroke="#56d8d0" stroke-width="2" stroke-dasharray="5,2" d="M357,-180C357,-180 317,-180 317,-180 311,-180 305,-174 305,-168 305,-168 305,-156 305,-156 305,-150 311,-144 317,-144 317,-144 357,-144 357,-144 363,-144 369,-150 369,-156 369,-156 369,-168 369,-168 369,-174 363,-180 357,-180"/>
<text text-anchor="middle" x="337" y="-159.5" font-family="sans" font-size="10.00">sleuth_wt</text>
</g>
<!-- 8&#45;&gt;9 -->
<g id="edge22" class="edge"><title>8&#45;&gt;9</title>
<path fill="none" stroke="grey" stroke-width="2" d="M441.799,-216.941C422.893,-207.21 398.557,-194.684 378.095,-184.152"/>
<polygon fill="grey" stroke="grey" stroke-width="2" points="379.493,-180.935 369,-179.471 376.29,-187.159 379.493,-180.935"/>
</g>
<!-- 9&#45;&gt;1 -->
<g id="edge9" class="edge"><title>9&#45;&gt;1</title>
<path fill="none" stroke="grey" stroke-width="2" d="M337.989,-143.697C338.43,-135.983 338.959,-126.712 339.451,-118.112"/>
<polygon fill="grey" stroke="grey" stroke-width="2" points="342.946,-118.288 340.023,-108.104 335.958,-117.888 342.946,-118.288"/>
</g>
<!-- 9&#45;&gt;4 -->
<g id="edge12" class="edge"><title>9&#45;&gt;4</title>
<path fill="none" stroke="grey" stroke-width="2" d="M314.258,-143.697C302.56,-134.796 288.139,-123.823 275.49,-114.199"/>
<polygon fill="grey" stroke="grey" stroke-width="2" points="277.558,-111.374 267.48,-108.104 273.319,-116.945 277.558,-111.374"/>
</g>
<!-- 10 -->
<g id="node11" class="node"><title>10</title>
<path fill="none" stroke="#d85656" stroke-width="2" stroke-dasharray="5,2" d="M498,-324C498,-324 408,-324 408,-324 402,-324 396,-318 396,-312 396,-312 396,-300 396,-300 396,-294 402,-288 408,-288 408,-288 498,-288 498,-288 504,-288 510,-294 510,-300 510,-300 510,-312 510,-312 510,-318 504,-324 498,-324"/>
<text text-anchor="middle" x="453" y="-309" font-family="sans" font-size="10.00">kallisto_quant</text>
<text text-anchor="middle" x="453" y="-298" font-family="sans" font-size="10.00">sample: SRR493366</text>
</g>
<!-- 10&#45;&gt;8 -->
<g id="edge16" class="edge"><title>10&#45;&gt;8</title>
<path fill="none" stroke="grey" stroke-width="2" d="M457.944,-287.697C460.172,-279.898 462.855,-270.509 465.335,-261.829"/>
<polygon fill="grey" stroke="grey" stroke-width="2" points="468.731,-262.681 468.113,-252.104 462,-260.758 468.731,-262.681"/>
</g>
<!-- 10&#45;&gt;9 -->
<g id="edge23" class="edge"><title>10&#45;&gt;9</title>
<path fill="none" stroke="grey" stroke-width="2" d="M409.04,-287.997C392.169,-279.488 374.085,-267.615 362,-252 348.223,-234.198 342.038,-209.189 339.262,-190.212"/>
<polygon fill="grey" stroke="grey" stroke-width="2" points="342.713,-189.602 338.016,-180.106 335.766,-190.459 342.713,-189.602"/>
</g>
<!-- 11 -->
<g id="node12" class="node"><title>11</title>
<path fill="none" stroke="#d85656" stroke-width="2" stroke-dasharray="5,2" d="M630,-324C630,-324 540,-324 540,-324 534,-324 528,-318 528,-312 528,-312 528,-300 528,-300 528,-294 534,-288 540,-288 540,-288 630,-288 630,-288 636,-288 642,-294 642,-300 642,-300 642,-312 642,-312 642,-318 636,-324 630,-324"/>
<text text-anchor="middle" x="585" y="-309" font-family="sans" font-size="10.00">kallisto_quant</text>
<text text-anchor="middle" x="585" y="-298" font-family="sans" font-size="10.00">sample: SRR493367</text>
</g>
<!-- 11&#45;&gt;8 -->
<g id="edge17" class="edge"><title>11&#45;&gt;8</title>
<path fill="none" stroke="grey" stroke-width="2" d="M557.602,-287.876C543.093,-278.808 525.084,-267.552 509.415,-257.759"/>
<polygon fill="grey" stroke="grey" stroke-width="2" points="510.839,-254.522 500.504,-252.19 507.129,-260.458 510.839,-254.522"/>
</g>
<!-- 11&#45;&gt;9 -->
<g id="edge24" class="edge"><title>11&#45;&gt;9</title>
<path fill="none" stroke="grey" stroke-width="2" d="M527.779,-289.593C475.47,-275.356 405.416,-255.842 400,-252 377.339,-235.927 359.955,-209.034 349.246,-189.008"/>
<polygon fill="grey" stroke="grey" stroke-width="2" points="352.344,-187.38 344.665,-180.08 346.116,-190.575 352.344,-187.38"/>
</g>
<!-- 12 -->
<g id="node13" class="node"><title>12</title>
<path fill="none" stroke="#d85656" stroke-width="2" stroke-dasharray="5,2" d="M762,-324C762,-324 672,-324 672,-324 666,-324 660,-318 660,-312 660,-312 660,-300 660,-300 660,-294 666,-288 672,-288 672,-288 762,-288 762,-288 768,-288 774,-294 774,-300 774,-300 774,-312 774,-312 774,-318 768,-324 762,-324"/>
<text text-anchor="middle" x="717" y="-309" font-family="sans" font-size="10.00">kallisto_quant</text>
<text text-anchor="middle" x="717" y="-298" font-family="sans" font-size="10.00">sample: SRR493368</text>
</g>
<!-- 12&#45;&gt;8 -->
<g id="edge18" class="edge"><title>12&#45;&gt;8</title>
<path fill="none" stroke="grey" stroke-width="2" d="M659.793,-288.588C614.994,-275.736 553.774,-258.173 513.82,-246.711"/>
<polygon fill="grey" stroke="grey" stroke-width="2" points="514.721,-243.328 504.144,-243.935 512.791,-250.057 514.721,-243.328"/>
</g>
<!-- 12&#45;&gt;9 -->
<g id="edge25" class="edge"><title>12&#45;&gt;9</title>
<path fill="none" stroke="grey" stroke-width="2" d="M659.835,-289.946C656.853,-289.264 653.894,-288.611 651,-288 554.913,-267.733 520.033,-297.484 433,-252 413.223,-241.664 414.215,-231.332 398,-216 387.521,-206.092 375.622,-195.595 365.133,-186.58"/>
<polygon fill="grey" stroke="grey" stroke-width="2" points="367.312,-183.838 357.433,-180.009 362.768,-189.163 367.312,-183.838"/>
</g>
<!-- 13 -->
<g id="node14" class="node"><title>13</title>
<path fill="none" stroke="#d85656" stroke-width="2" stroke-dasharray="5,2" d="M102,-324C102,-324 12,-324 12,-324 6,-324 0,-318 0,-312 0,-312 0,-300 0,-300 0,-294 6,-288 12,-288 12,-288 102,-288 102,-288 108,-288 114,-294 114,-300 114,-300 114,-312 114,-312 114,-318 108,-324 102,-324"/>
<text text-anchor="middle" x="57" y="-309" font-family="sans" font-size="10.00">kallisto_quant</text>
<text text-anchor="middle" x="57" y="-298" font-family="sans" font-size="10.00">sample: SRR493369</text>
</g>
<!-- 13&#45;&gt;8 -->
<g id="edge19" class="edge"><title>13&#45;&gt;8</title>
<path fill="none" stroke="grey" stroke-width="2" d="M114.155,-289.899C117.14,-289.229 120.102,-288.591 123,-288 233.889,-265.384 366.349,-247.881 431.968,-239.837"/>
<polygon fill="grey" stroke="grey" stroke-width="2" points="432.408,-243.309 441.913,-238.628 431.563,-236.361 432.408,-243.309"/>
</g>
<!-- 13&#45;&gt;9 -->
<g id="edge26" class="edge"><title>13&#45;&gt;9</title>
<path fill="none" stroke="grey" stroke-width="2" d="M90.7745,-287.871C142.199,-261.792 240.009,-212.188 295.624,-183.983"/>
<polygon fill="grey" stroke="grey" stroke-width="2" points="297.5,-186.957 304.836,-179.312 294.334,-180.713 297.5,-186.957"/>
</g>
<!-- 14 -->
<g id="node15" class="node"><title>14</title>
<path fill="none" stroke="#d85656" stroke-width="2" stroke-dasharray="5,2" d="M234,-324C234,-324 144,-324 144,-324 138,-324 132,-318 132,-312 132,-312 132,-300 132,-300 132,-294 138,-288 144,-288 144,-288 234,-288 234,-288 240,-288 246,-294 246,-300 246,-300 246,-312 246,-312 246,-318 240,-324 234,-324"/>
<text text-anchor="middle" x="189" y="-309" font-family="sans" font-size="10.00">kallisto_quant</text>
<text text-anchor="middle" x="189" y="-298" font-family="sans" font-size="10.00">sample: SRR493370</text>
</g>
<!-- 14&#45;&gt;8 -->
<g id="edge20" class="edge"><title>14&#45;&gt;8</title>
<path fill="none" stroke="grey" stroke-width="2" d="M246.225,-290.209C249.192,-289.459 252.13,-288.718 255,-288 316.564,-272.588 388.072,-255.325 431.926,-244.81"/>
<polygon fill="grey" stroke="grey" stroke-width="2" points="433.011,-248.149 441.921,-242.415 431.38,-241.341 433.011,-248.149"/>
</g>
<!-- 14&#45;&gt;9 -->
<g id="edge27" class="edge"><title>14&#45;&gt;9</title>
<path fill="none" stroke="grey" stroke-width="2" d="M206.852,-287.871C232.965,-262.817 281.706,-216.052 311.563,-187.406"/>
<polygon fill="grey" stroke="grey" stroke-width="2" points="314.292,-189.638 319.084,-180.189 309.445,-184.587 314.292,-189.638"/>
</g>
<!-- 15 -->
<g id="node16" class="node"><title>15</title>
<path fill="none" stroke="#d85656" stroke-width="2" stroke-dasharray="5,2" d="M366,-324C366,-324 276,-324 276,-324 270,-324 264,-318 264,-312 264,-312 264,-300 264,-300 264,-294 270,-288 276,-288 276,-288 366,-288 366,-288 372,-288 378,-294 378,-300 378,-300 378,-312 378,-312 378,-318 372,-324 366,-324"/>
<text text-anchor="middle" x="321" y="-309" font-family="sans" font-size="10.00">kallisto_quant</text>
<text text-anchor="middle" x="321" y="-298" font-family="sans" font-size="10.00">sample: SRR493371</text>
</g>
<!-- 15&#45;&gt;8 -->
<g id="edge21" class="edge"><title>15&#45;&gt;8</title>
<path fill="none" stroke="grey" stroke-width="2" d="M358.183,-287.876C380.739,-277.488 409.531,-264.229 432.64,-253.587"/>
<polygon fill="grey" stroke="grey" stroke-width="2" points="434.217,-256.714 441.836,-249.352 431.289,-250.356 434.217,-256.714"/>
</g>
<!-- 15&#45;&gt;9 -->
<g id="edge28" class="edge"><title>15&#45;&gt;9</title>
<path fill="none" stroke="grey" stroke-width="2" d="M320.532,-287.849C320.285,-269.86 320.577,-240.81 324,-216 325.184,-207.421 327.179,-198.212 329.256,-189.916"/>
<polygon fill="grey" stroke="grey" stroke-width="2" points="332.702,-190.575 331.876,-180.012 325.935,-188.785 332.702,-190.575"/>
</g>
</g>
</svg>
